<?xml version="1.0" encoding="utf-8" ?>
<svg baseProfile="full" height="200" version="1.1" width="200" xmlns="http://www.w3.org/2000/svg" xmlns:ev="http://www.w3.org/2001/xml-events" xmlns:xlink="http://www.w3.org/1999/xlink"><defs /><circle cx="3.342262420328403" cy="1.3624904157727524" r="1" /><circle cx="30.467551837895833" cy="2.3535223227076862" r="1" /><circle cx="45.09956814467951" cy="1.4871529689093652" r="1" /><circle cx="57.92242158929722" cy="1.2616754936993075" r="1" /><circle cx="72.5815578056528" cy="0.11057148325202171" r="1" /><circle cx="82.540645412478" cy="1.2683910516952106" r="1" /><circle cx="96.12340565439153" cy="2.207215505211271" r="1" /><circle cx="104.34542209496212" cy="1.8104829566268297" r="1" /><circle cx="118.7894482950587" cy="1.5730542656872544" r="1" /><circle cx="128.558925023315" cy="2.8669942721861696" r="1" /><circle cx="151.91900388869075" cy="1.8700221116448326" r="1" /><circle cx="182.27329943032478" cy="2.560839312033468" r="1" /><circle cx="196.96089143687274" cy="0.357949252478309" r="1" /><circle cx="5.919304168097504" cy="6.940831650340365" r="1" /><circle cx="11.931615887351658" cy="5.711283043170029" r="1" /><circle cx="20.43629615828883" cy="4.670243918212796" r="1" /><circle cx="28.15738334065986" cy="6.963121722140563" r="1" /><circle cx="35.35670132829677" cy="6.702306316415418" r="1" /><circle cx="50.595191859481815" cy="4.33143317659116" r="1" /><circle cx="55.72897016767101" cy="6.003680551393921" r="1" /><circle cx="64.51513343408641" cy="3.651193249053765" r="1" /><circle cx="89.83598017030596" cy="4.767161470579231" r="1" /><circle cx="98.78054821461566" cy="6.840956364859582" r="1" /><circle cx="109.91136427166266" cy="4.108856825895982" r="1" /><circle cx="137.0261934843378" cy="3.912092594175676" r="1" /><circle cx="144.6407080682855" cy="5.5410229036841425" r="1" /><circle cx="158.11807926885186" cy="4.418167574625032" r="1" /><circle cx="169.7192982237181" cy="6.033170192919991" r="1" /><circle cx="177.02585155703775" cy="3.6979480400994333" r="1" /><circle cx="189.22756310113542" cy="5.234559149501583" r="1" /><circle cx="41.57584271756852" cy="7.101566615578285" r="1" /><circle cx="46.02278907401528" cy="10.34186336793604" r="1" /><circle cx="66.6606545743764" cy="9.978858697193628" r="1" /><circle cx="72.43594357574857" cy="7.501156619166168" r="1" /><circle cx="77.84996491814259" cy="8.934899606922261" r="1" /><circle cx="93.48140643789226" cy="9.757897482553977" r="1" /><circle cx="105.79273441341101" cy="7.901995367723991" r="1" /><circle cx="122.8505999123262" cy="8.065084814147523" r="1" /><circle cx="136.9744159601353" cy="8.97572288082557" r="1" /><circle cx="183.26656847172697" cy="9.719626109576616" r="1" /><circle cx="194.53337733635257" cy="7.119136015168493" r="1" /><circle cx="199.58494558126065" cy="9.152172556205635" r="1" /><circle cx="8.80401484266528" cy="12.812549669934388" r="1" /><circle cx="17.193753626958753" cy="14.02872418328581" r="1" /><circle cx="22.98416214982612" cy="12.559168776103574" r="1" /><circle cx="30.836035766331616" cy="13.804291405249222" r="1" /><circle cx="36.29145653185726" cy="12.605898632642567" r="1" /><circle cx="52.8206195003164" cy="11.048661364490435" r="1" /><circle cx="57.857246547420466" cy="11.004347222231335" r="1" /><circle cx="86.74832297368981" cy="13.554348597485895" r="1" /><circle cx="113.41115994838555" cy="10.737186031838696" r="1" /><circle cx="133.01223232674116" cy="13.00835558434892" r="1" /><circle cx="140.52918526298032" cy="13.230349361811847" r="1" /><circle cx="155.91914686955857" cy="10.799289571489561" r="1" /><circle cx="164.50180250773167" cy="14.028415706717363" r="1" /><circle cx="176.05169426367175" cy="11.35178060461141" r="1" /><circle cx="192.57008340705215" cy="13.780755414766848" r="1" /><circle cx="3.2160337330005264" cy="16.850997694203027" r="1" /><circle cx="12.580199204795239" cy="16.226364269189034" r="1" /><circle cx="21.028979063911684" cy="17.64984381082258" r="1" /><circle cx="41.19719866387896" cy="14.59165764402227" r="1" /><circle cx="49.678994819285506" cy="17.14059595853101" r="1" /><circle cx="66.75510615825146" cy="15.32232244175124" r="1" /><circle cx="71.97597852623912" cy="14.25515806297097" r="1" /><circle cx="80.1231130375256" cy="17.375166119741387" r="1" /><circle cx="92.38241616243579" cy="14.974336502652104" r="1" /><circle cx="102.10005705545804" cy="15.347307200989025" r="1" /><circle cx="110.57480309646675" cy="14.928935948647528" r="1" /><circle cx="117.61201609361396" cy="14.237816319151934" r="1" /><circle cx="127.6870405063806" cy="14.939226884337359" r="1" /><circle cx="137.5573353120939" cy="17.485254935590806" r="1" /><circle cx="147.47231364125835" cy="14.637518135229127" r="1" /><circle cx="159.55887742462505" cy="17.07114739060302" r="1" /><circle cx="187.60496567822483" cy="16.053011238808665" r="1" /><circle cx="197.61183232754144" cy="16.03209489939628" r="1" /><circle cx="43.95190034630703" cy="19.544166049747005" r="1" /><circle cx="56.104765328645954" cy="18.215980115090616" r="1" /><circle cx="62.989748012118014" cy="18.780750542323304" r="1" /><circle cx="68.23921152377837" cy="20.225624890479846" r="1" /><circle cx="86.36247894437263" cy="21.11154729379142" r="1" /><circle cx="91.59687937963258" cy="20.23173144675273" r="1" /><circle cx="97.91966151790112" cy="20.31531289219296" r="1" /><circle cx="104.73149224796751" cy="19.734647495668394" r="1" /><circle cx="115.12526304517453" cy="20.163075400130072" r="1" /><circle cx="142.68857310243962" cy="20.1456306164754" r="1" /><circle cx="148.00910755768857" cy="21.004372926237856" r="1" /><circle cx="152.71198158178416" cy="18.34171945324557" r="1" /><circle cx="164.98643744211668" cy="20.62355914994935" r="1" /><circle cx="179.72412404566802" cy="19.373052892707875" r="1" /><circle cx="191.60598117649195" cy="20.259370245213162" r="1" /><circle cx="0.2842935490394787" cy="21.6435299481889" r="1" /><circle cx="9.617003619028514" cy="22.353016214404526" r="1" /><circle cx="18.055890330233158" cy="21.758032048660496" r="1" /><circle cx="27.29569549552156" cy="21.230592305748946" r="1" /><circle cx="34.633307473406546" cy="21.31255447081851" r="1" /><circle cx="47.9878869701341" cy="22.649849616884197" r="1" /><circle cx="73.34434993339175" cy="22.106999061023792" r="1" /><circle cx="122.7650380507656" cy="22.340999536541663" r="1" /><circle cx="130.24130672680468" cy="23.100766866416542" r="1" /><circle cx="170.79171553432067" cy="21.574542821168038" r="1" /><circle cx="184.87325541967272" cy="22.772611250492737" r="1" /><circle cx="25.780723074537345" cy="27.95034957854473" r="1" /><circle cx="31.310063430327034" cy="26.765651604583027" r="1" /><circle cx="42.66435779588639" cy="27.36904609444631" r="1" /><circle cx="56.47856627494463" cy="28.04319179539267" r="1" /><circle cx="64.39506198159708" cy="25.482915391621937" r="1" /><circle cx="81.2241779244676" cy="25.596984221611493" r="1" /><circle cx="93.95075442296675" cy="27.342000618984102" r="1" /><circle cx="102.77644006481539" cy="26.998371401276103" r="1" /><circle cx="112.70341614560053" cy="25.199680648250034" r="1" /><circle cx="138.11482367161298" cy="25.72275971490303" r="1" /><circle cx="158.28706031982193" cy="27.20066176724181" r="1" /><circle cx="170.6378113942134" cy="26.939535081355288" r="1" /><circle cx="177.23679568310374" cy="26.880962169220837" r="1" /><circle cx="190.9800194652595" cy="26.873864624632652" r="1" /><circle cx="197.9383698885066" cy="25.250530874631735" r="1" /><circle cx="5.498923164766513" cy="29.946558592783706" r="1" /><circle cx="19.51499767087357" cy="30.00005386543134" r="1" /><circle cx="36.844927895678744" cy="28.557942446090827" r="1" /><circle cx="51.46452415369527" cy="30.299931479238506" r="1" /><circle cx="67.84024958762512" cy="30.00783397006629" r="1" /><circle cx="75.52583624936598" cy="31.408819394087345" r="1" /><circle cx="85.04703273263966" cy="30.271923365293574" r="1" /><circle cx="90.96447765636165" cy="31.450369590741616" r="1" /><circle cx="107.81532482125743" cy="28.690209026149383" r="1" /><circle cx="118.76769405425149" cy="29.650083093171098" r="1" /><circle cx="131.69205917442986" cy="31.43453582153822" r="1" /><circle cx="138.07525151535137" cy="31.12871283536868" r="1" /><circle cx="143.29237036461004" cy="29.966539703826378" r="1" /><circle cx="163.46764936053418" cy="29.16041808706337" r="1" /><circle cx="183.3919138336598" cy="28.795512114049323" r="1" /><circle cx="195.48779045871424" cy="29.82288058882348" r="1" /><circle cx="12.276447192355157" cy="33.52626543243014" r="1" /><circle cx="27.72587612890317" cy="34.67229463846998" r="1" /><circle cx="34.35841062579631" cy="33.79206888359144" r="1" /><circle cx="96.66574111645092" cy="34.14088570952898" r="1" /><circle cx="115.28150978521622" cy="33.881161423848376" r="1" /><circle cx="124.0554760700751" cy="33.53816115070818" r="1" /><circle cx="152.81555465844562" cy="32.0081689611231" r="1" /><circle cx="158.84065654695854" cy="33.45865153468959" r="1" /><circle cx="169.3347275118702" cy="33.04684311414161" r="1" /><circle cx="176.30784257901487" cy="35.0552860139889" r="1" /><circle cx="182.55513757505918" cy="35.00583471573691" r="1" /><circle cx="190.02368937933784" cy="33.74042740042908" r="1" /><circle cx="199.51328783442918" cy="33.77123045477366" r="1" /><circle cx="5.770016224057886" cy="35.535240995259635" r="1" /><circle cx="14.537287342707486" cy="38.10574022964712" r="1" /><circle cx="23.006200111575716" cy="37.15551895152911" r="1" /><circle cx="41.40531408046057" cy="38.26654244157869" r="1" /><circle cx="55.87667732463561" cy="37.39322128084261" r="1" /><circle cx="64.15118001589836" cy="37.2361802056119" r="1" /><circle cx="84.87270545423247" cy="37.54034326380378" r="1" /><circle cx="102.54165157273114" cy="36.91459884739257" r="1" /><circle cx="110.32105511823559" cy="38.644002858153165" r="1" /><circle cx="120.12104812017247" cy="36.85198599967963" r="1" /><circle cx="130.8108536917306" cy="37.665634026100605" r="1" /><circle cx="142.69514865666613" cy="37.517105962033774" r="1" /><circle cx="155.53361658465275" cy="37.849990222841804" r="1" /><circle cx="165.61742631633228" cy="38.36590688415065" r="1" /><circle cx="191.9507055073992" cy="38.804735874204994" r="1" /><circle cx="7.876205002464001" cy="40.312564030269044" r="1" /><circle cx="29.626161676203573" cy="41.60769257888855" r="1" /><circle cx="69.31542783326087" cy="39.26947190956387" r="1" /><circle cx="74.77201856100245" cy="39.77148423038836" r="1" /><circle cx="91.07028531873189" cy="39.35860550776018" r="1" /><circle cx="98.04635096533424" cy="39.78434735604846" r="1" /><circle cx="137.86048222894706" cy="39.07107063421289" r="1" /><circle cx="148.91617474471323" cy="39.169725659472405" r="1" /><circle cx="175.98294892947823" cy="42.303053251053605" r="1" /><circle cx="197.7283595085525" cy="40.96259012156948" r="1" /><circle cx="23.12350057700011" cy="43.64425377622104" r="1" /><circle cx="35.876129043457" cy="42.498968121325234" r="1" /><circle cx="53.33686598973555" cy="42.569953389022515" r="1" /><circle cx="61.66415115084431" cy="45.295096274347046" r="1" /><circle cx="78.40131228851563" cy="45.028548274779524" r="1" /><circle cx="85.52834253101031" cy="44.91116039095473" r="1" /><circle cx="99.22462216225466" cy="45.58984539708414" r="1" /><circle cx="104.24537864897233" cy="43.08333950442946" r="1" /><circle cx="113.28739208894694" cy="45.02410999077284" r="1" /><circle cx="120.77131120918429" cy="43.73216404315714" r="1" /><circle cx="143.24442416780857" cy="44.21502592155817" r="1" /><circle cx="153.05451412367572" cy="44.45366501666107" r="1" /><circle cx="158.10173598096665" cy="42.76778916632428" r="1" /><circle cx="163.23534032498046" cy="43.610571151445946" r="1" /><circle cx="182.94657908361353" cy="43.88804119022526" r="1" /><circle cx="1.795471974432826" cy="46.575409461035555" r="1" /><circle cx="8.897839834503431" cy="48.17463149378884" r="1" /><circle cx="15.186833949749925" cy="46.62048890821926" r="1" /><circle cx="23.593422652170897" cy="49.007716642267205" r="1" /><circle cx="30.369333923412007" cy="46.96465865234607" r="1" /><circle cx="49.41219592066447" cy="48.83889013817837" r="1" /><circle cx="65.532730503138" cy="48.88720207067344" r="1" /><circle cx="71.41541964087514" cy="47.09181114173381" r="1" /><circle cx="91.52863117307453" cy="46.92917783567821" r="1" /><circle cx="108.6413537616739" cy="47.27206508327823" r="1" /><circle cx="131.5364256537087" cy="46.88868561996" r="1" /><circle cx="136.4072342378132" cy="48.380351847437375" r="1" /><circle cx="155.11517632492217" cy="49.051515586379296" r="1" /><circle cx="160.2877894997794" cy="49.013950272959235" r="1" /><circle cx="171.3597018253819" cy="48.447176167068406" r="1" /><circle cx="192.4235892530136" cy="46.56260632544816" r="1" /><circle cx="17.28647170712151" cy="52.77147426125227" r="1" /><circle cx="32.230536456622914" cy="52.689142157006955" r="1" /><circle cx="43.78380434652701" cy="50.87309074451363" r="1" /><circle cx="56.92672447943232" cy="51.48394835539572" r="1" /><circle cx="74.05059438562807" cy="51.34986534815306" r="1" /><circle cx="100.22060084305087" cy="50.66475303156522" r="1" /><circle cx="112.47347816505861" cy="51.03767081019331" r="1" /><circle cx="120.71733754504028" cy="51.89436153457991" r="1" /><circle cx="126.52336059668228" cy="52.812307746624015" r="1" /><circle cx="132.11447654257393" cy="52.41599100772019" r="1" /><circle cx="139.08963662654094" cy="52.96637249480623" r="1" /><circle cx="147.91182072505444" cy="49.498181878174506" r="1" /><circle cx="166.8367808609404" cy="51.21905525171174" r="1" /><circle cx="180.36439692514074" cy="52.618024985079764" r="1" /><circle cx="186.6129072811093" cy="51.932679181401" r="1" /><circle cx="195.49942569609254" cy="51.12485642449347" r="1" /><circle cx="25.250183720850202" cy="53.73098938205276" r="1" /><circle cx="46.034912121222874" cy="55.42013740384563" r="1" /><circle cx="53.72145457318108" cy="56.52749675457425" r="1" /><circle cx="61.24015949612737" cy="56.106380910855584" r="1" /><circle cx="67.25243573132848" cy="54.879762227640704" r="1" /><circle cx="81.993288799801" cy="53.72388647072897" r="1" /><circle cx="89.41627332690116" cy="54.067281317496565" r="1" /><circle cx="94.70522202460086" cy="54.696710559419984" r="1" /><circle cx="106.26887414126205" cy="53.27266491719875" r="1" /><circle cx="191.53032153162923" cy="55.76988051602222" r="1" /><circle cx="198.46365261489416" cy="55.75895965005373" r="1" /><circle cx="10.820034285746793" cy="57.289825104906924" r="1" /><circle cx="24.086794996997472" cy="59.79671566346684" r="1" /><circle cx="30.31120839715688" cy="57.78873880179319" r="1" /><circle cx="40.193747508097545" cy="58.62103953350456" r="1" /><circle cx="75.11768541316908" cy="57.47915955449696" r="1" /><circle cx="98.1459742889765" cy="59.78430279715921" r="1" /><circle cx="103.24837967802407" cy="59.55374807329655" r="1" /><circle cx="114.99938783901987" cy="57.909474186620066" r="1" /><circle cx="127.11118369131239" cy="58.35236416608063" r="1" /><circle cx="150.64887453575582" cy="57.69755647925654" r="1" /><circle cx="160.0790523911643" cy="57.83326354732481" r="1" /><circle cx="165.6128200000161" cy="58.09282248661132" r="1" /><circle cx="173.60878919320334" cy="57.13922163012856" r="1" /><circle cx="179.59152119652475" cy="58.76177924322174" r="1" /><circle cx="187.79458129489805" cy="59.50645695585996" r="1" /><circle cx="17.975721384808626" cy="60.72088715284169" r="1" /><circle cx="35.67256257175625" cy="61.47846272257594" r="1" /><circle cx="58.77511893518728" cy="60.580257782688264" r="1" /><circle cx="68.26890621017424" cy="60.56147443841205" r="1" /><circle cx="82.33473591977484" cy="61.660498887669775" r="1" /><circle cx="91.78798215472794" cy="61.17503058894937" r="1" /><circle cx="109.12141885454952" cy="60.44783576252891" r="1" /><circle cx="120.09551986357502" cy="62.78692123252482" r="1" /><circle cx="125.1533857997257" cy="63.023149878623656" r="1" /><circle cx="132.36752808666787" cy="63.2188940765688" r="1" /><circle cx="142.0278286145045" cy="60.74263983028693" r="1" /><circle cx="156.78315495660217" cy="63.18183160400804" r="1" /><circle cx="194.2831239126388" cy="62.57347643044002" r="1" /><circle cx="7.8710879845425525" cy="64.90460924871998" r="1" /><circle cx="14.284525585233975" cy="65.22235442244016" r="1" /><circle cx="20.019217190170522" cy="66.81127713333163" r="1" /><circle cx="31.23334380814102" cy="64.84752817988928" r="1" /><circle cx="40.99197677904398" cy="65.76346565368665" r="1" /><circle cx="48.669065513607265" cy="64.3246308051942" r="1" /><circle cx="54.07302629039551" cy="65.00727107123184" r="1" /><circle cx="59.2721776578475" cy="65.66669419919049" r="1" /><circle cx="65.23493778832815" cy="66.11021803868952" r="1" /><circle cx="77.90893968413421" cy="67.08222785631227" r="1" /><circle cx="86.41349956675741" cy="65.58849823420732" r="1" /><circle cx="99.6107919916544" cy="65.99328164729916" r="1" /><circle cx="105.79771751930647" cy="64.92086337763617" r="1" /><circle cx="148.99397031685544" cy="63.94841058257907" r="1" /><circle cx="163.24496915578024" cy="65.56046564753802" r="1" /><circle cx="170.15880651538117" cy="65.0479524919464" r="1" /><circle cx="181.538403265142" cy="64.76423523807061" r="1" /><circle cx="13.129240650191436" cy="70.50769168555615" r="1" /><circle cx="25.858305363926153" cy="69.30718088509873" r="1" /><circle cx="70.55447919423104" cy="67.84988679222803" r="1" /><circle cx="92.74777857688046" cy="69.83698237580222" r="1" /><circle cx="108.00987106566393" cy="69.63206278476844" r="1" /><circle cx="120.36718153377348" cy="68.29333896289837" r="1" /><circle cx="125.57094707832134" cy="70.50189008345865" r="1" /><circle cx="137.86135915562173" cy="67.19270387620743" r="1" /><circle cx="145.22089750954936" cy="67.47425816925771" r="1" /><circle cx="155.61991860404785" cy="68.19191597374748" r="1" /><circle cx="163.93071477512692" cy="70.65037838726042" r="1" /><circle cx="177.2899293211269" cy="68.29416777754099" r="1" /><circle cx="188.28693987463376" cy="68.56116945896488" r="1" /><circle cx="193.75745421934758" cy="69.89993941755701" r="1" /><circle cx="3.0817941912869826" cy="71.5802670545908" r="1" /><circle cx="38.67738928412053" cy="71.44235987782874" r="1" /><circle cx="49.23766283520233" cy="73.66573323671027" r="1" /><circle cx="53.73367673132279" cy="71.14633088616654" r="1" /><circle cx="58.85825780281139" cy="73.05012019968899" r="1" /><circle cx="70.78823275698858" cy="73.1507340375099" r="1" /><circle cx="82.88203701158756" cy="72.06728833793652" r="1" /><circle cx="87.90793026796119" cy="72.43058181036658" r="1" /><circle cx="101.07305284231076" cy="71.09371753583575" r="1" /><circle cx="139.68846518720636" cy="74.18262151983014" r="1" /><circle cx="149.51745442210662" cy="74.07429806703432" r="1" /><circle cx="168.82891068029497" cy="73.33397396468544" r="1" /><circle cx="178.5889471277492" cy="73.85140166795685" r="1" /><circle cx="12.186993294982013" cy="77.19409800905389" r="1" /><circle cx="17.271119820235594" cy="76.42770991523365" r="1" /><circle cx="23.770566584159354" cy="74.50508902897823" r="1" /><circle cx="31.833080195910643" cy="75.63396319057739" r="1" /><circle cx="41.578308315691125" cy="76.28903923496108" r="1" /><circle cx="54.78216308109242" cy="77.71604351931343" r="1" /><circle cx="66.0172523920598" cy="75.48622605793169" r="1" /><circle cx="75.66576520395142" cy="74.34607524727097" r="1" /><circle cx="85.06570699357874" cy="76.96432019717022" r="1" /><circle cx="94.77988029005893" cy="75.70396277758532" r="1" /><circle cx="107.60650521020713" cy="76.18533559690272" r="1" /><circle cx="117.51967463084641" cy="75.60295032147484" r="1" /><circle cx="125.69797433318756" cy="77.41878259469627" r="1" /><circle cx="133.4310699512633" cy="75.1228422418743" r="1" /><circle cx="162.21363995720938" cy="75.76469758279607" r="1" /><circle cx="184.5884472751105" cy="75.06958093900138" r="1" /><circle cx="194.5874284437597" cy="76.72852999640854" r="1" /><circle cx="3.982827773685033" cy="80.50313446372962" r="1" /><circle cx="36.227237183678625" cy="79.55828571178122" r="1" /><circle cx="48.363759700872585" cy="78.87883443791101" r="1" /><circle cx="69.62267446437146" cy="79.55879940658275" r="1" /><circle cx="111.1009261049876" cy="80.46086120619142" r="1" /><circle cx="156.44921620421252" cy="78.87497137543662" r="1" /><circle cx="170.50993940196486" cy="80.55862102374364" r="1" /><circle cx="180.73037581786622" cy="81.02765971308924" r="1" /><circle cx="189.4394074754952" cy="77.91968101202745" r="1" /><circle cx="10.267925842211875" cy="83.62311921417887" r="1" /><circle cx="23.02768587848803" cy="82.62248025746086" r="1" /><circle cx="30.734869745474263" cy="82.20191084072748" r="1" /><circle cx="42.13457011794628" cy="84.32358492943973" r="1" /><circle cx="48.672126339478396" cy="83.89742372425141" r="1" /><circle cx="62.30524273905435" cy="82.12536749339456" r="1" /><circle cx="79.0308293899135" cy="81.4932414689262" r="1" /><circle cx="84.10819918788148" cy="83.11055160582757" r="1" /><circle cx="96.63641793691788" cy="81.3514485676476" r="1" /><circle cx="122.86178353942407" cy="81.60231065501512" r="1" /><circle cx="130.58868681129067" cy="83.55200561815917" r="1" /><circle cx="135.71202095256277" cy="81.95552388387284" r="1" /><circle cx="141.51380468930896" cy="82.43228285208176" r="1" /><circle cx="151.32121857004907" cy="82.2921605947439" r="1" /><circle cx="160.36204091118213" cy="82.40859019336474" r="1" /><circle cx="175.6484576365955" cy="81.4336475919196" r="1" /><circle cx="187.50185106404666" cy="83.44945803902569" r="1" /><circle cx="197.92984482343252" cy="81.7429837829714" r="1" /><circle cx="5.154156177861713" cy="85.49251175612399" r="1" /><circle cx="16.92061126797974" cy="86.13707211862528" r="1" /><circle cx="53.555391403704846" cy="86.64000087795" r="1" /><circle cx="66.27429396776114" cy="85.43425170314504" r="1" /><circle cx="73.60159255641321" cy="85.19950505433327" r="1" /><circle cx="90.68707622326019" cy="86.00551312476614" r="1" /><circle cx="105.18604501263016" cy="84.89581828571819" r="1" /><circle cx="110.77117657612266" cy="87.94182938025716" r="1" /><circle cx="116.22775278292252" cy="84.94557318928042" r="1" /><circle cx="136.9772223018389" cy="87.90672369114164" r="1" /><circle cx="146.78493230996898" cy="85.09702835233186" r="1" /><circle cx="155.8698053959901" cy="87.14871095646333" r="1" /><circle cx="164.9410387716504" cy="87.6150805705328" r="1" /><circle cx="177.5417044391084" cy="86.077576937841" r="1" /><circle cx="1.6154114811467437" cy="90.946808902107" r="1" /><circle cx="8.802544565164002" cy="90.15320576923315" r="1" /><circle cx="15.686325661951656" cy="91.048225510937" r="1" /><circle cx="21.09246502086128" cy="90.27003688518255" r="1" /><circle cx="27.953991380232615" cy="89.72070337859591" r="1" /><circle cx="36.39962646126142" cy="88.85841849530063" r="1" /><circle cx="42.65529988204571" cy="90.12308169660267" r="1" /><circle cx="59.58548194564065" cy="90.9132369987586" r="1" /><circle cx="76.2216088655683" cy="90.37917607796301" r="1" /><circle cx="81.38996056577827" cy="90.11116406963069" r="1" /><circle cx="99.17636523670944" cy="89.42303507255575" r="1" /><circle cx="124.45626189634321" cy="88.49122651991412" r="1" /><circle cx="129.65414055550147" cy="90.25437111059054" r="1" /><circle cx="152.4060211115727" cy="91.2181917997846" r="1" /><circle cx="170.1184581187718" cy="91.83061738596082" r="1" /><circle cx="185.33854059063682" cy="89.09537373595167" r="1" /><circle cx="195.1766668776426" cy="90.27090393800488" r="1" /><circle cx="34.111790051446874" cy="93.86973932747536" r="1" /><circle cx="50.344785105233115" cy="93.15836635754262" r="1" /><circle cx="55.059628308741836" cy="95.38954993991067" r="1" /><circle cx="66.884682572768" cy="92.71770539468784" r="1" /><circle cx="88.62515236445455" cy="91.99199488391345" r="1" /><circle cx="115.52711525117273" cy="92.79333946930511" r="1" /><circle cx="125.34053575105925" cy="93.93374176769052" r="1" /><circle cx="134.90412102684508" cy="92.55241947218164" r="1" /><circle cx="143.42616114616922" cy="92.52469212537991" r="1" /><circle cx="157.7656601146112" cy="93.98992918263849" r="1" /><circle cx="163.44809438415527" cy="93.0870398327995" r="1" /><circle cx="180.9817186874668" cy="95.32088170105608" r="1" /><circle cx="186.34154717740847" cy="94.81874337839794" r="1" /><circle cx="5.177823403579268" cy="96.2060800212613" r="1" /><circle cx="12.518737857085087" cy="97.58454605133707" r="1" /><circle cx="21.846140600146672" cy="96.98212559045986" r="1" /><circle cx="29.172911483076437" cy="98.6539789813128" r="1" /><circle cx="40.48015514669406" cy="95.8067860908142" r="1" /><circle cx="45.090946772023706" cy="97.91501561559565" r="1" /><circle cx="63.09826947235775" cy="96.38327889484088" r="1" /><circle cx="74.60478701182552" cy="96.33940303995952" r="1" /><circle cx="90.07083431805064" cy="97.04844430604346" r="1" /><circle cx="95.85419514375818" cy="97.50543961339308" r="1" /><circle cx="101.2386644816126" cy="97.67028356606069" r="1" /><circle cx="106.13373771598776" cy="95.94566654141993" r="1" /><circle cx="118.81685603488806" cy="98.98390593147393" r="1" /><circle cx="130.47896479361668" cy="95.94685221345388" r="1" /><circle cx="134.70700625981019" cy="98.85568778112004" r="1" /><circle cx="139.4860425387911" cy="97.14866269719272" r="1" /><circle cx="148.48816122042246" cy="98.69832873500597" r="1" /><circle cx="169.7202339533711" cy="98.64985322889169" r="1" /><circle cx="176.09080390897617" cy="97.4212468517072" r="1" /><circle cx="192.67186542748257" cy="97.99272572695243" r="1" /><circle cx="199.50042781267658" cy="95.55067055300574" r="1" /><circle cx="0.9823959214334836" cy="100.85140835609683" r="1" /><circle cx="6.229804263932401" cy="101.20024937218804" r="1" /><circle cx="35.19338113861191" cy="99.77420674989217" r="1" /><circle cx="50.73336430689913" cy="101.72683768981098" r="1" /><circle cx="58.836023457687745" cy="99.71030284003189" r="1" /><circle cx="71.35940777248614" cy="101.16783054513465" r="1" /><circle cx="85.48440093627796" cy="102.43726542232116" r="1" /><circle cx="105.29102481488378" cy="101.76115704009824" r="1" /><circle cx="124.59207617383703" cy="99.42624026870172" r="1" /><circle cx="130.30843295489177" cy="102.35259415092341" r="1" /><circle cx="142.96018899585454" cy="102.07900677662903" r="1" /><circle cx="153.2898284765228" cy="100.9103825746709" r="1" /><circle cx="159.7514763721581" cy="101.25146241579719" r="1" /><circle cx="182.1241307059124" cy="102.31441061175443" r="1" /><circle cx="187.86641877237025" cy="100.36680954161541" r="1" /><circle cx="197.4555432099202" cy="101.27992485870004" r="1" /><circle cx="12.93293734051678" cy="105.70980881120445" r="1" /><circle cx="21.376930572320312" cy="104.0764119484504" r="1" /><circle cx="41.9495583484289" cy="103.52358588136754" r="1" /><circle cx="62.16886713631217" cy="103.50082706943037" r="1" /><circle cx="76.81185000609706" cy="104.6309197859448" r="1" /><circle cx="94.94963271809588" cy="104.04679609752243" r="1" /><circle cx="101.96841043207694" cy="105.84523377058665" r="1" /><circle cx="137.0636368384093" cy="103.60534738738825" r="1" /><circle cx="174.2556860336063" cy="104.35192440777135" r="1" /><circle cx="191.48337650638112" cy="104.62219472747891" r="1" /><circle cx="1.6178306297560106" cy="108.21372803020219" r="1" /><circle cx="6.759601689198845" cy="107.1123393179978" r="1" /><circle cx="31.79590422644397" cy="107.28154727722236" r="1" /><circle cx="38.40472262172295" cy="107.50351789198375" r="1" /><circle cx="46.06139349621716" cy="107.32281670913397" r="1" /><circle cx="50.869125270675596" cy="108.97971638744717" r="1" /><circle cx="57.83745126196567" cy="107.74021321282174" r="1" /><circle cx="67.25444826298036" cy="106.51676317702052" r="1" /><circle cx="72.54531320139007" cy="107.47270923095417" r="1" /><circle cx="81.41875974104698" cy="108.79326633533287" r="1" /><circle cx="90.63187786845542" cy="108.46588275613645" r="1" /><circle cx="111.40132640372627" cy="108.04728457946942" r="1" /><circle cx="118.57664425526794" cy="106.38990351365817" r="1" /><circle cx="126.12624333183552" cy="107.68645510971326" r="1" /><circle cx="140.23694345840377" cy="107.92404986639268" r="1" /><circle cx="146.3283178951505" cy="107.72864925194311" r="1" /><circle cx="151.87030472458142" cy="107.04143176692247" r="1" /><circle cx="161.81476836029162" cy="107.08280193300222" r="1" /><circle cx="183.24901367872508" cy="107.44401686486988" r="1" /><circle cx="18.505570753603177" cy="110.81144064076408" r="1" /><circle cx="25.31307516570211" cy="111.03545779885036" r="1" /><circle cx="43.406409251285865" cy="113.06301899846869" r="1" /><circle cx="96.15115119254547" cy="112.4261591828707" r="1" /><circle cx="101.48322146910559" cy="111.97491985956593" r="1" /><circle cx="116.20950948451282" cy="112.19568971835625" r="1" /><circle cx="134.01376902423425" cy="110.31414311712024" r="1" /><circle cx="156.66899834017602" cy="112.31471270715" r="1" /><circle cx="164.92245557105215" cy="112.46456639627495" r="1" /><circle cx="169.92715586969032" cy="109.60189315029513" r="1" /><circle cx="175.31727992467802" cy="111.29243301901664" r="1" /><circle cx="187.67634019990302" cy="110.10374707779701" r="1" /><circle cx="196.4449028815164" cy="109.77039715862512" r="1" /><circle cx="2.1190809159519164" cy="113.99779113654895" r="1" /><circle cx="10.102776853416508" cy="113.3035126958742" r="1" /><circle cx="22.880660518960056" cy="116.4810196343672" r="1" /><circle cx="30.863956997062225" cy="113.8191128047028" r="1" /><circle cx="38.09505076491984" cy="115.24723604483098" r="1" /><circle cx="47.97525248034413" cy="115.22838871559759" r="1" /><circle cx="55.26289106033346" cy="114.71279088959344" r="1" /><circle cx="67.24393901870738" cy="113.73332517494856" r="1" /><circle cx="74.20653570804787" cy="115.6610321825419" r="1" /><circle cx="87.35642017566481" cy="115.30717033243397" r="1" /><circle cx="108.84604462720894" cy="114.77677675632258" r="1" /><circle cx="126.03440613492344" cy="113.3927516105034" r="1" /><circle cx="138.09319970690396" cy="115.66878449495528" r="1" /><circle cx="144.70049753722301" cy="113.22908261826298" r="1" /><circle cx="183.83892345654553" cy="114.83749026684417" r="1" /><circle cx="190.64124498243513" cy="114.15199432985573" r="1" /><circle cx="10.641147451765741" cy="118.53117965608703" r="1" /><circle cx="29.844921541846887" cy="118.76635226324615" r="1" /><circle cx="40.29962010871071" cy="120.03223278662097" r="1" /><circle cx="49.95508891703481" cy="120.03592469003965" r="1" /><circle cx="61.35930311350813" cy="116.8865459817448" r="1" /><circle cx="81.1955313903861" cy="117.6357428883218" r="1" /><circle cx="119.55499972477487" cy="119.48303328204562" r="1" /><circle cx="130.41696444516037" cy="116.68785050691214" r="1" /><circle cx="151.1729080574268" cy="116.8335050970242" r="1" /><circle cx="157.39205126772242" cy="117.97899329134809" r="1" /><circle cx="168.31265551776175" cy="117.79039218670444" r="1" /><circle cx="180.21412244493246" cy="118.57019960813949" r="1" /><circle cx="198.0534114523621" cy="119.1555427240744" r="1" /><circle cx="5.007325371353912" cy="122.21825864397191" r="1" /><circle cx="17.16863245666299" cy="123.25610654668779" r="1" /><circle cx="24.516912805081407" cy="122.90757064820413" r="1" /><circle cx="58.01619370218203" cy="121.97646440420985" r="1" /><circle cx="66.74030447696303" cy="120.98150173838518" r="1" /><circle cx="74.41544657918968" cy="123.3742720297247" r="1" /><circle cx="91.53746754670253" cy="120.2713371860554" r="1" /><circle cx="98.9240868100287" cy="121.2118231738333" r="1" /><circle cx="106.10553329399136" cy="121.78130370299294" r="1" /><circle cx="124.63225458563589" cy="123.23431357521686" r="1" /><circle cx="143.74934087151587" cy="122.74891551940664" r="1" /><circle cx="152.88981403048192" cy="122.87385841178022" r="1" /><circle cx="161.25482092497762" cy="123.50256781038217" r="1" /><circle cx="173.92738967832943" cy="120.44364595394089" r="1" /><circle cx="190.86043664218573" cy="120.47524627977646" r="1" /><circle cx="10.712853970888858" cy="124.11757517270068" r="1" /><circle cx="30.645476597595717" cy="124.06370596532555" r="1" /><circle cx="38.17491832112732" cy="124.86157835868585" r="1" /><circle cx="47.54056646425268" cy="125.28488069327088" r="1" /><circle cx="52.705507974913466" cy="124.91429318997639" r="1" /><circle cx="88.8992974657172" cy="125.08046233593873" r="1" /><circle cx="111.28989632631868" cy="124.60610100527109" r="1" /><circle cx="117.14569891947887" cy="126.98927245283296" r="1" /><circle cx="132.4687238730469" cy="125.70761502475436" r="1" /><circle cx="137.7044701652669" cy="124.5663971196311" r="1" /><circle cx="166.69245029686618" cy="126.76872889759056" r="1" /><circle cx="173.51076840724903" cy="126.26872935218874" r="1" /><circle cx="187.88558733039275" cy="125.2339547319131" r="1" /><circle cx="194.95923023039987" cy="126.71100862849667" r="1" /><circle cx="199.88310990166985" cy="124.19189910944895" r="1" /><circle cx="5.9895653470664225" cy="130.16526002416387" r="1" /><circle cx="25.91339712226418" cy="128.73111464270235" r="1" /><circle cx="40.34512977084087" cy="129.94371491604667" r="1" /><circle cx="59.740960154875346" cy="128.6991351574172" r="1" /><circle cx="68.55004104592709" cy="127.98501223142117" r="1" /><circle cx="74.2574739297888" cy="129.74230030854682" r="1" /><circle cx="82.77987390996165" cy="128.87841881894508" r="1" /><circle cx="92.13292292099601" cy="130.72930474426732" r="1" /><circle cx="99.3469359213825" cy="127.82723996111687" r="1" /><circle cx="105.24622416512798" cy="129.12753512536293" r="1" /><circle cx="124.82662725925925" cy="129.51290755997294" r="1" /><circle cx="138.22985762057664" cy="129.61507989092007" r="1" /><circle cx="148.14986128948118" cy="129.7562549891381" r="1" /><circle cx="177.58937231356327" cy="129.95253190822754" r="1" /><circle cx="1.3223413489121314" cy="132.18196946966017" r="1" /><circle cx="12.269006244538753" cy="131.01926868942877" r="1" /><circle cx="20.427781708235198" cy="132.84200749946538" r="1" /><circle cx="33.170664636526794" cy="130.96529866744908" r="1" /><circle cx="44.79877660604794" cy="133.81659061001693" r="1" /><circle cx="54.06769358428875" cy="131.02296845880753" r="1" /><circle cx="83.02621798098457" cy="134.1687800294494" r="1" /><circle cx="113.67403395423989" cy="130.90660352685663" r="1" /><circle cx="119.42192068884695" cy="132.1960858375874" r="1" /><circle cx="130.10150536261742" cy="131.3833213852678" r="1" /><circle cx="143.0101768281246" cy="131.53836790174321" r="1" /><circle cx="151.88638912660926" cy="133.5002454023463" r="1" /><circle cx="158.28276612514037" cy="131.4110700317416" r="1" /><circle cx="170.97307966600775" cy="131.62382951437948" r="1" /><circle cx="185.4115627057357" cy="132.6251757911258" r="1" /><circle cx="191.98506652945153" cy="131.00395547698213" r="1" /><circle cx="197.79780100259848" cy="132.4385849619399" r="1" /><circle cx="4.052659886059899" cy="137.13095451870316" r="1" /><circle cx="11.537514157321693" cy="136.89937549401475" r="1" /><circle cx="26.469183049938" cy="135.40748167877018" r="1" /><circle cx="34.379206277816344" cy="136.1124373889843" r="1" /><circle cx="54.97147204779355" cy="137.2507869600214" r="1" /><circle cx="60.48509463713301" cy="134.5287190191919" r="1" /><circle cx="71.94498945447084" cy="136.10644723803665" r="1" /><circle cx="88.07323972955028" cy="137.09650108748139" r="1" /><circle cx="98.48817197809801" cy="134.9574708722692" r="1" /><circle cx="106.5376569210813" cy="136.0931325859552" r="1" /><circle cx="135.57492933249802" cy="134.85307244544768" r="1" /><circle cx="145.97548942857742" cy="137.5517097408995" r="1" /><circle cx="167.50599446296198" cy="137.41671619750863" r="1" /><circle cx="175.30033169674186" cy="137.8840009350507" r="1" /><circle cx="181.24915904763762" cy="136.65795885672216" r="1" /><circle cx="16.59953329225148" cy="139.48893300320327" r="1" /><circle cx="40.96360781744969" cy="139.72415755120142" r="1" /><circle cx="66.36722440218527" cy="139.60519371549626" r="1" /><circle cx="93.27958905985747" cy="140.56733613528058" r="1" /><circle cx="109.67232749472461" cy="141.168414470333" r="1" /><circle cx="127.48931206302917" cy="137.892136162764" r="1" /><circle cx="132.3789852453752" cy="138.95816155191733" r="1" /><circle cx="140.8654715995872" cy="138.88591337120695" r="1" /><circle cx="151.14092450919614" cy="140.4947016931065" r="1" /><circle cx="186.8724673794962" cy="139.5756034305799" r="1" /><circle cx="192.83232910474203" cy="139.0333962904306" r="1" /><circle cx="197.88748500098617" cy="139.38547544043962" r="1" /><circle cx="10.78310097443514" cy="142.7085801161124" r="1" /><circle cx="19.795440169912194" cy="144.71315071365157" r="1" /><circle cx="28.411685933739026" cy="142.71329117675174" r="1" /><circle cx="36.635527093720064" cy="142.85444211679314" r="1" /><circle cx="71.74056359769415" cy="142.16231227807893" r="1" /><circle cx="79.69459361762252" cy="142.92149786303762" r="1" /><circle cx="101.42079290284407" cy="142.34959310590742" r="1" /><circle cx="114.39371696130316" cy="144.45425505818093" r="1" /><circle cx="121.43952304496082" cy="141.48067774927316" r="1" /><circle cx="129.42190805262925" cy="144.6749681582313" r="1" /><circle cx="142.70276215324725" cy="143.82300991454895" r="1" /><circle cx="159.00356202403876" cy="142.2241022199106" r="1" /><circle cx="164.7896600312556" cy="143.98458755473595" r="1" /><circle cx="181.01961580703494" cy="143.29778062039625" r="1" /><circle cx="194.77128576425542" cy="144.123331362577" r="1" /><circle cx="46.63124416546504" cy="146.09526241510926" r="1" /><circle cx="52.79830521621981" cy="147.43171862914699" r="1" /><circle cx="59.80338239647638" cy="147.48063704175485" r="1" /><circle cx="67.33975134107418" cy="147.6993566213568" r="1" /><circle cx="90.37791008335677" cy="146.6619167265241" r="1" /><circle cx="95.72984593087105" cy="148.319220369645" r="1" /><circle cx="105.62450220297224" cy="148.27681358926682" r="1" /><circle cx="110.74033914984847" cy="148.1924086945084" r="1" /><circle cx="136.07753234738507" cy="147.4367756508558" r="1" /><circle cx="150.07051049439147" cy="146.44103344170665" r="1" /><circle cx="155.61412340208597" cy="146.39074096632757" r="1" /><circle cx="171.87545446052602" cy="145.01856954067898" r="1" /><circle cx="177.2225200888744" cy="146.84783344540642" r="1" /><circle cx="15.232369824482053" cy="149.3989706101787" r="1" /><circle cx="22.198514905255763" cy="149.75880262940822" r="1" /><circle cx="31.217871606168664" cy="149.1191910040869" r="1" /><circle cx="44.124932069892566" cy="150.49984655353342" r="1" /><circle cx="76.16549072270291" cy="150.25304928964465" r="1" /><circle cx="81.62108344303395" cy="151.55751406812104" r="1" /><circle cx="116.25558062660896" cy="149.3562480101257" r="1" /><circle cx="122.33124509354072" cy="151.061052074197" r="1" /><circle cx="162.5817707080815" cy="151.9504703389654" r="1" /><circle cx="181.3285773609874" cy="150.73315563136458" r="1" /><circle cx="186.82131979850828" cy="148.909130124951" r="1" /><circle cx="6.130485250786595" cy="153.11048633529686" r="1" /><circle cx="35.82143353687357" cy="155.36538173774795" r="1" /><circle cx="41.335161312367546" cy="155.03510884133962" r="1" /><circle cx="52.266402001535425" cy="153.82449519047162" r="1" /><circle cx="60.63981905451307" cy="153.78413549088032" r="1" /><circle cx="68.26016804272136" cy="154.6829550359536" r="1" /><circle cx="89.73204837357419" cy="152.16022844047973" r="1" /><circle cx="94.79139630713993" cy="154.67155329208393" r="1" /><circle cx="101.33338156241666" cy="153.7217057137893" r="1" /><circle cx="112.86507180093155" cy="154.28391449305886" r="1" /><circle cx="129.63083665194202" cy="152.2419903257504" r="1" /><circle cx="136.11531978103807" cy="152.7917565106159" r="1" /><circle cx="143.52959697433184" cy="152.13187362922025" r="1" /><circle cx="156.0216277218438" cy="153.35436993624774" r="1" /><circle cx="168.1458195720818" cy="154.2180521414958" r="1" /><circle cx="173.36581386255287" cy="154.99458296992088" r="1" /><circle cx="195.02060949963484" cy="154.5982351508183" r="1" /><circle cx="10.922124283736107" cy="157.0065192486127" r="1" /><circle cx="18.437350973420802" cy="156.28904428103286" r="1" /><circle cx="46.999722665998995" cy="158.8414760595185" r="1" /><circle cx="83.8397166153213" cy="157.23254123610482" r="1" /><circle cx="107.96076485181035" cy="156.10782594947614" r="1" /><circle cx="129.20336141116468" cy="157.69832115010786" r="1" /><circle cx="151.42153606386992" cy="155.7811692574398" r="1" /><circle cx="180.24031569499587" cy="158.0802671220039" r="1" /><circle cx="186.11132799926395" cy="157.65728128439147" r="1" /><circle cx="191.16836811076226" cy="158.0518309760234" r="1" /><circle cx="2.341122929505783" cy="160.12112975923284" r="1" /><circle cx="13.507579619988332" cy="162.48862366490883" r="1" /><circle cx="18.994600039711354" cy="162.33832394929593" r="1" /><circle cx="25.429637202618903" cy="161.69426610592828" r="1" /><circle cx="40.30559882133563" cy="160.49135414743978" r="1" /><circle cx="53.855632798211005" cy="160.61641881104939" r="1" /><circle cx="61.087109591632874" cy="160.11444646295053" r="1" /><circle cx="76.08790793645328" cy="159.75418109025776" r="1" /><circle cx="89.79791641331579" cy="159.69914745584902" r="1" /><circle cx="95.25364119061383" cy="161.37047154645012" r="1" /><circle cx="112.09433710489581" cy="160.93120915330482" r="1" /><circle cx="117.4945481305534" cy="160.80449640630385" r="1" /><circle cx="124.2995371631403" cy="159.88369238987553" r="1" /><circle cx="134.34884154300394" cy="161.31343859393667" r="1" /><circle cx="143.6772820159352" cy="160.3517974184802" r="1" /><circle cx="160.1664179888795" cy="159.25192106429427" r="1" /><circle cx="168.6492492651509" cy="159.51875959842894" r="1" /><circle cx="197.96252912770024" cy="161.56527634456486" r="1" /><circle cx="32.03772891230216" cy="162.66092430974484" r="1" /><circle cx="49.81870419240904" cy="163.75940433676976" r="1" /><circle cx="68.66981246782007" cy="163.52092282483275" r="1" /><circle cx="75.2907613655947" cy="165.97504785251" r="1" /><circle cx="83.84061233101905" cy="162.9593221041252" r="1" /><circle cx="100.13788960101706" cy="165.6508182366651" r="1" /><circle cx="104.80610103709976" cy="163.05627001122602" r="1" /><circle cx="131.1281642322313" cy="165.3470090476444" r="1" /><circle cx="148.86569493383476" cy="164.52285574855125" r="1" /><circle cx="155.34239807590706" cy="163.52776174661318" r="1" /><circle cx="160.62781991553285" cy="166.11145695502776" r="1" /><circle cx="165.07270967389593" cy="163.56146035303914" r="1" /><circle cx="172.3836887575191" cy="162.94814425504103" r="1" /><circle cx="182.57970964184014" cy="165.45406905508787" r="1" /><circle cx="187.79747812590318" cy="164.53776329192235" r="1" /><circle cx="3.543784144760525" cy="169.008469839293" r="1" /><circle cx="10.953650430065698" cy="166.98255995420672" r="1" /><circle cx="19.918982076246504" cy="168.46116241413878" r="1" /><circle cx="27.639954268667665" cy="166.4374670665254" r="1" /><circle cx="36.22361672825599" cy="168.39365098067975" r="1" /><circle cx="44.70433896422563" cy="168.53771460273362" r="1" /><circle cx="53.9765752290245" cy="169.00715450695358" r="1" /><circle cx="61.73101441429352" cy="169.13166488239702" r="1" /><circle cx="90.00828146305679" cy="168.34811767285" r="1" /><circle cx="121.92043027740007" cy="168.75977974692995" r="1" /><circle cx="136.34406542793545" cy="168.8953673538864" r="1" /><circle cx="143.16875988602308" cy="167.3791318323143" r="1" /><circle cx="176.82522921575415" cy="168.25936504714417" r="1" /><circle cx="193.34934501694366" cy="167.94788658688222" r="1" /><circle cx="30.150294966906102" cy="172.02008756608274" r="1" /><circle cx="68.9111782234377" cy="173.1734391245968" r="1" /><circle cx="79.10949820459699" cy="171.48077331014466" r="1" /><circle cx="84.81192367467526" cy="170.44948370157957" r="1" /><circle cx="98.33652846798066" cy="173.14569121988868" r="1" /><circle cx="106.55178263048168" cy="173.0221933998655" r="1" /><circle cx="110.9787368926076" cy="170.53144705728718" r="1" /><circle cx="130.5285422218152" cy="170.7229233893719" r="1" /><circle cx="141.017510625541" cy="171.94104609169253" r="1" /><circle cx="149.53822911381477" cy="169.9014506522028" r="1" /><circle cx="167.46898462009463" cy="170.1805037816644" r="1" /><circle cx="173.49978771766604" cy="172.26490471506722" r="1" /><circle cx="182.6268691802958" cy="172.66498421410984" r="1" /><circle cx="9.356433794801667" cy="175.11393252212554" r="1" /><circle cx="14.710068254365023" cy="176.66119431412378" r="1" /><circle cx="23.221105386061517" cy="174.4850690098674" r="1" /><circle cx="41.111164454194565" cy="176.0630989234688" r="1" /><circle cx="46.923350786359656" cy="174.3065077693134" r="1" /><circle cx="54.634970319090435" cy="174.15397587492333" r="1" /><circle cx="64.58576841536632" cy="175.92757144472534" r="1" /><circle cx="77.957205246121" cy="176.48351031491134" r="1" /><circle cx="116.3357743130487" cy="173.71909107128317" r="1" /><circle cx="124.50233864471343" cy="173.6760634080174" r="1" /><circle cx="145.25962843677337" cy="175.11326019950496" r="1" /><circle cx="155.57642724743593" cy="173.64121685962607" r="1" /><circle cx="162.4428870452982" cy="174.20287278259553" r="1" /><circle cx="190.85648581177063" cy="174.3093962021817" r="1" /><circle cx="196.5032099195782" cy="175.40430782864243" r="1" /><circle cx="34.663334742411735" cy="176.95198921205517" r="1" /><circle cx="51.0533732928677" cy="179.5822798552516" r="1" /><circle cx="57.1061696785218" cy="178.72090229528482" r="1" /><circle cx="70.18942771871231" cy="179.62014301984954" r="1" /><circle cx="85.54679154820123" cy="177.39903223282604" r="1" /><circle cx="92.68215355353993" cy="178.53630086665294" r="1" /><circle cx="102.24356731177488" cy="176.77927083985787" r="1" /><circle cx="113.13915929869974" cy="179.75898562204802" r="1" /><circle cx="120.04146591946326" cy="178.76952275492187" r="1" /><circle cx="137.9299291066006" cy="176.85531866050042" r="1" /><circle cx="150.612781825354" cy="179.26748045201714" r="1" /><circle cx="157.17303340881412" cy="178.54824727786018" r="1" /><circle cx="171.20832532258012" cy="178.72380898968404" r="1" /><circle cx="177.7249177856352" cy="179.95088138429068" r="1" /><circle cx="187.9813295103512" cy="179.46340669182675" r="1" /><circle cx="11.564427254845118" cy="180.90560178182238" r="1" /><circle cx="24.083770727780347" cy="183.56370676989962" r="1" /><circle cx="30.49189374599108" cy="180.86304751870566" r="1" /><circle cx="38.69171771065928" cy="182.14388661104104" r="1" /><circle cx="44.46235312056923" cy="183.16220100294007" r="1" /><circle cx="77.31911658380575" cy="183.59091349325539" r="1" /><circle cx="99.13017380883387" cy="182.23971734015055" r="1" /><circle cx="105.11672045924854" cy="180.9368268492485" r="1" /><circle cx="117.24802239696766" cy="183.6585898141679" r="1" /><circle cx="128.97441161140654" cy="180.69443481017194" r="1" /><circle cx="137.15129717313684" cy="182.19913300296736" r="1" /><circle cx="145.4174744407403" cy="181.7956293637034" r="1" /><circle cx="160.3671466140796" cy="183.08104115805904" r="1" /><circle cx="165.25555682581435" cy="181.05519397235685" r="1" /><circle cx="182.0978490859779" cy="183.55354844911113" r="1" /><circle cx="195.16237555185498" cy="182.92331143942334" r="1" /><circle cx="1.443758903693051" cy="185.90480094049602" r="1" /><circle cx="16.892740475836607" cy="185.22882508108842" r="1" /><circle cx="30.88001365962126" cy="186.22105590542958" r="1" /><circle cx="52.96425120458083" cy="187.07876420669152" r="1" /><circle cx="83.87214947078924" cy="184.40525487722837" r="1" /><circle cx="123.19929923128392" cy="183.90696677105552" r="1" /><circle cx="176.19540830448352" cy="186.74384548736413" r="1" /><circle cx="186.39466017206328" cy="186.64832846914382" r="1" /><circle cx="8.60522375578285" cy="187.41775801350283" r="1" /><circle cx="37.218533993463296" cy="189.72298203200364" r="1" /><circle cx="43.78359743734386" cy="188.31421746277323" r="1" /><circle cx="62.6978672706499" cy="189.16198288103243" r="1" /><circle cx="68.86167325754452" cy="187.83315217011926" r="1" /><circle cx="91.82768964774722" cy="187.38964465884902" r="1" /><circle cx="96.89378454458415" cy="189.0457902946638" r="1" /><circle cx="102.17843356911538" cy="187.7898962796717" r="1" /><circle cx="111.28665064615919" cy="187.95254266337642" r="1" /><circle cx="121.98348365553801" cy="189.47022804621287" r="1" /><circle cx="127.22888740022923" cy="189.9074869445792" r="1" /><circle cx="135.32186557766255" cy="188.53068045463985" r="1" /><circle cx="140.58479257298671" cy="190.12279808214248" r="1" /><circle cx="151.34612430684146" cy="188.01691026665512" r="1" /><circle cx="160.93441797199293" cy="188.17671573099116" r="1" /><circle cx="168.10722006951204" cy="188.1805021352301" r="1" /><circle cx="190.52638717442278" cy="189.8627081146077" r="1" /><circle cx="6.215625120267559" cy="191.88138310928525" r="1" /><circle cx="11.663555890021753" cy="193.69999602785498" r="1" /><circle cx="18.310814745964272" cy="192.01413305900923" r="1" /><circle cx="25.11387521834821" cy="192.29490937017027" r="1" /><circle cx="56.84100305542739" cy="192.5886423361462" r="1" /><circle cx="67.9025262160682" cy="193.13315485005077" r="1" /><circle cx="79.53870336023114" cy="193.68475566566423" r="1" /><circle cx="87.62341262446934" cy="192.11995156904067" r="1" /><circle cx="104.18910956485084" cy="193.04086704817942" r="1" /><circle cx="116.29336202778543" cy="191.70660519021328" r="1" /><circle cx="131.60252273071163" cy="193.4237548991587" r="1" /><circle cx="145.59527414780206" cy="192.38137705626679" r="1" /><circle cx="151.13044121633334" cy="193.10607105367663" r="1" /><circle cx="156.5518905500149" cy="193.3910573644961" r="1" /><circle cx="173.15240003058014" cy="193.83741797613624" r="1" /><circle cx="180.40547633216673" cy="193.03455926822284" r="1" /><circle cx="196.81415410419729" cy="192.08298481082616" r="1" /><circle cx="19.494731027808683" cy="197.52929148013592" r="1" /><circle cx="31.035571686294617" cy="195.44602802979097" r="1" /><circle cx="40.594805939684726" cy="197.07877049037717" r="1" /><circle cx="47.23742200715956" cy="194.52077929728512" r="1" /><circle cx="62.52807444151162" cy="196.85937766886897" r="1" /><circle cx="74.91207922888051" cy="196.42187501791082" r="1" /><circle cx="86.33905517876042" cy="197.59908521731356" r="1" /><circle cx="95.50557029528933" cy="195.10625336570874" r="1" /><circle cx="111.82283552329262" cy="195.79820230354773" r="1" /><circle cx="138.19836183637466" cy="196.19490348302145" r="1" /><circle cx="165.0898128029334" cy="197.20705053063233" r="1" /><circle cx="187.7899540885518" cy="196.83337790820326" r="1" /><circle cx="14.840695083687196" cy="199.9572268932354" r="1" /><circle cx="25.084972439730986" cy="198.0948486921555" r="1" /><circle cx="35.02053417707068" cy="198.6157795788922" r="1" /><circle cx="46.650786704905045" cy="199.78247250484503" r="1" /><circle cx="53.20641911110662" cy="198.93215763548503" r="1" /><circle cx="92.95183292010074" cy="199.69629832957284" r="1" /><circle cx="123.70190249041384" cy="198.61670325572084" r="1" /><circle cx="131.58232793974835" cy="198.72246233272887" r="1" /><circle cx="147.04367370564455" cy="199.23744356612877" r="1" /><circle cx="154.28135139873984" cy="199.9292469437174" r="1" /><circle cx="160.3463101753415" cy="199.96170294211925" r="1" /></svg>
